PathFileType	4	(X/Y/Z)	Run_500 02
DataRate	CameraRate	NumFrames	NumMarkers	Units	OrigDataRate	OrigDataStartFrame	OrigNumFrames
120	120	5	42	mm	120	109	128
Frame#	Time	LASI			RASI			LPSI			RPSI			RTH1			RTH2			RTH3			LTH1			LTH2			LTH3			RTB1			RTB2			RTB3			LTB1			LTB2			LTB3			RCAL			RTOE			RMT5			LCAL			LTOE			LMT5			LACR			RACR			CLAV			C7			RUA1			RUA2			RUA3			RLEL			RMEL			LUA1			LUA2			LUA3			LLEL			LMEL			RFAsuperior			RFAradius			RFAulna			LFAsuperior			LFAradius			LFAulna			
		X1	Y1	Z1	X2	Y2	Z2	X3	Y3	Z3	X4	Y4	Z4	X5	Y5	Z5	X6	Y6	Z6	X7	Y7	Z7	X8	Y8	Z8	X9	Y9	Z9	X10	Y10	Z10	X11	Y11	Z11	X12	Y12	Z12	X13	Y13	Z13	X14	Y14	Z14	X15	Y15	Z15	X16	Y16	Z16	X17	Y17	Z17	X18	Y18	Z18	X19	Y19	Z19	X20	Y20	Z20	X21	Y21	Z21	X22	Y22	Z22	X23	Y23	Z23	X24	Y24	Z24	X25	Y25	Z25	X26	Y26	Z26	X27	Y27	Z27	X28	Y28	Z28	X29	Y29	Z29	X30	Y30	Z30	X31	Y31	Z31	X32	Y32	Z32	X33	Y33	Z33	X34	Y34	Z34	X35	Y35	Z35	X36	Y36	Z36	X37	Y37	Z37	X38	Y38	Z38	X39	Y39	Z39	X40	Y40	Z40	X41	Y41	Z41	X42	Y42	Z42	

109	1	808.783895	1005.23111	-481.162646	813.590694	988.313093	-241.263345	649.5108320000001	1033.959679	-404.952741	657.220988	1042.769991	-317.086361	706.948128	810.586151	-207.621294	703.16973	678.5786880000001	-239.020585	575.361815	608.503032	-237.091375	811.740221	873.29576	-543.490023	913.747561	795.248384	-529.075512	913.729048	643.398985	-516.561918	412.75734	492.391548	-306.681025	347.207775	536.944299	-253.372867	234.012157	534.205967	-321.080658	1048.320857	441.990077	-447.458124	1021.663338	330.075749	-498.567843	1054.534872	252.151852	-426.153664	133.777233	660.292043	-324.096925	43.960511	461.947252	-346.160231	21.315547	498.111022	-258.424723	973.352225	98.739694	-425.737459	1181.567413	166.004705	-412.819939	1169.260419	122.756855	-498.054003	745.9468409999999	1461.719004	-554.586468	870.556855	1456.202599	-219.681761	897.46501	1403.365225	-400.985661	783.102565	1499.834046	-379.859652	873.926272	1352.278652	-151.491236	900.440954	1286.594448	-153.016883	822.825126	1273.255894	-75.61166900000001	863.274186	1191.325587	-63.037543	776.471606	1163.69535	-91.73724799999999	683.124585	1432.986397	-600.685687	612.689932	1384.246625	-584.236701	629.170132	1373.447032	-657.782075	559.503424	1303.328327	-716.39672	535.998916	1239.631278	-655.553627	915.210696	1192.615135	-132.190443	957.870704	1206.941794	-293.407029	966.9044239999999	1142.87731	-272.715467	627.880242	1302.600102	-732.615556	796.403799	1261.95442	-686.123598	780.588305	1211.520152	-725.209693	
110	1.008333	807.7375050000001	1001.430951	-482.364819	815.072303	984.382058	-242.391269	648.141154	1026.355306	-402.241615	656.88999	1035.795885	-314.113023	712.698937	804.283248	-208.695921	712.914543	672.231935	-240.694086	587.41183	598.959303	-236.212749	809.7296270000001	865.3067579999999	-543.362599	909.220986	785.843759	-529.159465	907.359921	635.08327	-515.9370269999999	422.266912	494.406826	-306.583087	361.470789	544.099259	-253.168386	248.561002	552.79743	-320.036755	1039.356768	432.751939	-448.310241	1011.817459	320.718842	-499.556775	1046.000768	242.225432	-427.937627	161.175328	687.499447	-324.252769	53.081126	497.777792	-340.682481	36.189388	537.272213	-253.577289	962.625772	92.731492	-426.611409	1172.290014	152.109383	-414.44239	1157.477956	108.75809	-498.957374	748.2394399999999	1455.711422	-557.974515	868.422443	1451.873051	-220.742825	896.826476	1398.170893	-401.523841	782.0211409999999	1495.318381	-382.965488	868.824929	1349.035701	-151.305296	894.023009	1282.40825	-152.117405	815.210319	1272.165562	-75.40340999999999	853.068527	1188.777617	-60.522844	765.620405	1164.103818	-90.324719	685.858521	1424.992867	-605.5386	615.80997	1373.479084	-589.317909	633.801196	1364.147575	-662.697627	567.414475	1293.151607	-723.3910980000001	544.92673	1227.178229	-664.039819	906.796902	1184.606771	-127.812045	955.938114	1190.30113	-287.873697	959.525577	1126.215978	-265.642928	636.593011	1295.035527	-738.436514	805.017372	1259.641589	-687.258603	792.192617	1209.952479	-728.739051	
111	1.016667	806.788446	996.824068	-484.152291	816.812621	979.865485	-243.192317	646.90915	1018.35343	-399.774963	656.649504	1027.717831	-311.277876	718.58367	797.179781	-209.930726	722.846885	665.385549	-241.961561	599.618142	588.966756	-235.207868	807.089783	856.9443230000001	-542.106928	904.801584	777.606353	-527.988582	900.915539	626.476058	-515.1760379999999	434.052352	495.253529	-305.483544	378.102176	549.743368	-252.399084	266.419795	568.751208	-318.340582	1028.780025	421.767459	-448.565825	1000.01925	309.62642	-499.564629	1033.328897	230.359177	-428.606174	191.60877	710.885778	-325.184027	67.354782	530.20696	-333.869725	56.784778	572.804298	-248.190171	944.403825	90.124104	-427.027784	1156.503339	133.595389	-414.38572	1138.356768	92.363165	-498.967143	750.748873	1449.036031	-561.44839	865.481398	1447.05419	-221.078764	896.100961	1392.645958	-401.710956	780.534907	1490.158306	-385.975505	862.6344340000001	1345.040032	-150.603166	886.05852	1277.329889	-150.804813	806.281918	1270.360142	-75.128455	841.721738	1185.825865	-57.9135	754.052676	1163.883062	-89.244856	688.9273030000001	1415.909893	-610.777786	619.4851159999999	1361.719897	-594.882034	639.039191	1353.847041	-668.004251	576.236347	1281.634182	-730.568832	555.030537	1213.610025	-672.545242	897.3801549999999	1176.115535	-122.670472	953.223613	1172.537706	-280.827186	951.253481	1109.01329	-257.114679	645.987154	1286.053247	-744.296396	814.240665	1257.196679	-688.430619	804.599832	1207.770184	-731.866977	
112	1.025	805.8440869999999	991.301826	-486.566407	818.85122	974.852525	-243.55974	645.455183	1010.006916	-397.81614	656.363979	1018.604462	-308.984579	724.673723	789.493922	-211.011467	732.617658	658.374644	-242.223731	611.847854	578.88463	-233.934828	803.859259	849.116345	-540.3647089999999	900.435575	770.284005	-526.171505	894.407768	617.749789	-514.7805090000001	448.166689	494.895956	-303.578946	397.059761	553.818745	-250.958482	287.300858	581.87677	-316.170612	1017.21221	409.519922	-447.931915	985.9436470000001	297.692857	-497.988781	1015.562845	217.908924	-427.099342	224.469009	730.3113090000001	-326.758734	86.60193	558.679383	-326.344057	82.47370600000001	603.975197	-242.572603	918.183526	90.724052	-426.391854	1133.074534	113.226636	-412.260688	1111.633951	76.908545	-497.892777	753.454404	1441.892717	-564.829832	861.880961	1441.87005	-220.873647	895.463917	1386.87539	-401.580257	778.926846	1484.471826	-388.711144	855.439957	1340.473687	-149.52928	876.52787	1271.605679	-149.090029	796.069296	1268.072439	-74.84142	829.303687	1182.645638	-55.21001	741.893025	1163.098439	-88.597078	692.368927	1405.9747	-616.180472	623.707429	1349.172995	-600.968209	644.965248	1342.663779	-673.70222	586.016431	1268.894874	-737.760072	566.414729	1199.159289	-680.8082879999999	886.966515	1167.433781	-116.829652	949.576929	1153.880851	-272.369113	942.219482	1091.670279	-246.78724	656.109828	1275.884487	-749.894781	823.914259	1254.619972	-689.514091	817.778742	1205.132621	-734.343603	
113	1.033333	804.674998	984.970497	-489.379681	820.925413	969.36204	-244.063003	643.368238	1001.637341	-396.45182	655.657424	1008.838913	-307.452613	730.9028980000001	781.742262	-211.848735	742.152201	651.659046	-241.17342	624.422025	569.048185	-232.184506	799.998652	842.544472	-539.170443	895.999875	763.566109	-525.105802	888.513928	609.994049	-515.368547	464.622358	493.383975	-301.025919	418.22978	556.362585	-248.879314	310.93326	592.227591	-313.823062	1004.861506	397.751197	-446.319585	969.0873329999999	287.093304	-494.99295	992.169619	207.210389	-423.358999	259.302421	745.573226	-328.633809	110.459168	582.794313	-318.92788	112.583108	630.22383	-236.991387	884.781752	93.281004	-424.478302	1101.980757	95.325289	-408.58577	1078.055331	65.762641	-495.954451	756.301503	1434.563212	-567.9958810000001	857.702848	1436.449151	-220.425194	895.182993	1380.876998	-401.188257	777.319975	1478.414929	-391.134551	847.314047	1335.602745	-148.277963	865.541927	1265.617802	-147.065925	784.624828	1265.557756	-74.66640599999999	815.828505	1179.413945	-52.437187	729.466019	1161.808136	-88.53810799999999	696.251184	1395.406775	-621.578302	628.410747	1335.996667	-607.5557700000001	651.668143	1330.677256	-679.719213	596.860331	1255.150323	-744.757873	579.177039	1184.069357	-688.629279	875.476758	1158.867804	-110.388461	944.927613	1134.71926	-262.506263	932.4607	1074.529106	-234.547812	667.115779	1264.902814	-754.981834	833.919597	1251.867804	-690.283905	831.690107	1202.242531	-735.9176189999999	
